<?xml version="1.0" encoding="UTF-8"?>
<svg width="30px" height="35px" viewBox="0 0 30 35" version="1.1" xmlns="http://www.w3.org/2000/svg" xmlns:xlink="http://www.w3.org/1999/xlink">
    <!-- Generator: Sketch 49 (51002) - http://www.bohemiancoding.com/sketch -->
    <title>Shape</title>
    <desc>Created with Sketch.</desc>
    <defs></defs>
    <g id="Symbols" stroke="none" stroke-width="1" fill="none" fill-rule="evenodd">
        <g id="Icon/1_待运营审核" transform="translate(-15.000000, -13.000000)" fill="#FAFAFA" fill-rule="nonzero">
            <path d="M15.0275229,41.3712603 L15.0275229,37.0237496 C15.0275229,34.6251229 16.9357798,32.6762388 19.2844037,32.6762388 L25.7431193,32.6762388 L25.7431193,29.228213 C23.2477064,27.7290714 21.4862385,24.8807023 21.4862385,21.7325048 C21.4862385,16.9352515 25.3027523,13.0374833 30,13.0374833 C34.6972477,13.0374833 38.5137615,16.9352515 38.5137615,21.7325048 C38.5137615,25.0306164 36.7522936,27.7290714 34.2568807,29.228213 L34.2568807,32.6762388 L40.7155963,32.6762388 C43.0642202,32.6762388 44.9724771,34.6251229 44.9724771,37.0237496 L44.9724771,41.3712603 L15.0275229,41.3712603 Z M38.5137615,47.9674836 L21.4862385,47.9674836 L21.4862385,43.6199728 L38.6605505,43.6199728 L38.6605505,47.9674836 L38.5137615,47.9674836 Z" id="Shape"></path>
        </g>
    </g>
</svg>